<svg width="60" height="60" viewBox="0 0 60 60" fill="none" xmlns="http://www.w3.org/2000/svg">
<g clip-path="url(#clip0_642_19)">
<path d="M59.9873 18.4462C59.9869 17.4202 59.5834 16.5154 58.8205 15.8299L49.7005 7.63188C48.5661 6.61247 47.1359 5.57056 45.1249 5.57056C45.1243 5.57056 45.1234 5.57056 45.1228 5.57056C43.1106 5.57126 41.6802 6.61458 40.5464 7.63517L31.4323 15.8393C30.6697 16.5256 30.267 17.4308 30.2673 18.4567L30.2715 28.986H24.2187C25.3141 26.7111 26.0771 23.1174 25.2203 20.4264C24.6172 18.5325 23.2891 17.284 21.3797 16.8158C21.1359 16.7559 20.8785 16.7964 20.6648 16.928C20.4512 17.0595 20.2992 17.2714 20.2429 17.5158C20.1389 17.9674 20.0427 18.3906 19.9523 18.7885C18.8263 23.7472 18.6816 24.3844 15.5713 26.4173C13.374 27.8534 13.218 28.0388 11.8515 30.0324C11.712 30.2361 11.558 30.4606 11.3856 30.71C10.8322 31.5104 10.1243 31.8713 9.09551 31.8803L9.01617 31.8806V31.656C9.01617 30.4884 8.06625 29.5384 6.89848 29.5384H2.11758C0.949922 29.5384 0 30.4884 0 31.656V52.3119C0 53.4796 0.949922 54.4295 2.11758 54.4295H6.89859C8.06625 54.4295 9.01629 53.4796 9.01629 52.3119V51.3509C9.43887 51.4983 9.86133 51.6556 10.2963 51.818C12.4262 52.6135 14.8402 53.5151 18.4243 53.5151H30.8692C31.3997 53.5151 31.9045 53.4044 32.3629 53.2058C32.8129 53.4081 33.3004 53.5151 33.8002 53.5151H33.801L56.4814 53.5073C58.4223 53.5065 60.0007 51.9269 59.9999 49.986L59.9873 18.4462ZM7.14129 52.3119C7.14129 52.4435 7.0302 52.5545 6.89859 52.5545H2.11758C1.98609 52.5545 1.875 52.4435 1.875 52.3119V31.656C1.875 31.5245 1.98609 31.4134 2.11758 31.4134H6.89859C7.0302 31.4134 7.14129 31.5245 7.14129 31.656V52.3119ZM18.4243 51.6401C15.1789 51.6401 13.0303 50.8375 10.9525 50.0615C10.3252 49.8272 9.68191 49.587 9.01641 49.3726V33.7556L9.10676 33.7553C10.7445 33.741 12.0302 33.0751 12.9281 31.776C13.102 31.5245 13.2573 31.298 13.3982 31.0925C14.6584 29.2539 14.6584 29.2539 16.5973 27.9867C20.3422 25.539 20.6183 24.3227 21.7808 19.2037C21.798 19.1277 21.8155 19.0506 21.8332 18.9727C22.6058 19.3829 23.133 20.0511 23.4338 20.9952C24.3183 23.7731 22.9234 28.0496 21.832 29.3097C21.5918 29.5871 21.5355 29.9792 21.688 30.3131C21.8406 30.6469 22.1737 30.861 22.5408 30.861H33.2588C34.3032 30.861 35.153 31.7108 35.153 32.7552C35.153 33.7997 34.3032 34.6496 33.2588 34.6496H25.8695C25.3518 34.6496 24.932 35.0693 24.932 35.5871C24.932 36.1048 25.3518 36.5246 25.8695 36.5246H34.8073C35.8518 36.5246 36.7015 37.3743 36.7015 38.4188C36.7015 39.4633 35.8518 40.3131 34.8073 40.3131H25.8695C25.3518 40.3131 24.932 40.7329 24.932 41.2506C24.932 41.7684 25.3518 42.1881 25.8695 42.1881H33.8339C34.8784 42.1881 35.7281 43.0379 35.7281 44.0824C35.7281 45.1269 34.8784 45.9766 33.8339 45.9766H25.8695C25.3518 45.9766 24.932 46.3963 24.932 46.9141C24.932 47.4318 25.3518 47.8516 25.8695 47.8516H30.8693C31.9138 47.8516 32.7636 48.7014 32.7636 49.7459C32.7636 50.7904 31.9139 51.6401 30.8693 51.6401H18.4243ZM56.4807 51.6323L34.1259 51.64C34.4511 51.083 34.6385 50.4361 34.6385 49.7459C34.6385 49.0513 34.4497 48.4001 34.1208 47.8408C36.0656 47.6936 37.6031 46.0641 37.6031 44.0824C37.6031 43.1628 37.2721 42.319 36.7229 41.6641C37.8315 41.0071 38.5765 39.7982 38.5765 38.4188C38.5765 36.8751 37.6436 35.5452 36.3121 34.9631C36.7623 34.3421 37.028 33.5792 37.028 32.7552C37.028 30.6769 35.3371 28.986 33.2588 28.986H32.1466L32.1424 18.4561C32.1423 17.963 32.3203 17.5629 32.6868 17.2331L41.8009 9.02876C43.0498 7.90458 44.0125 7.44603 45.1236 7.44556H45.125C46.2353 7.44556 47.1981 7.90364 48.4473 9.0263L57.5673 17.2243C57.934 17.5539 58.1123 17.9539 58.1126 18.447L58.125 49.9867C58.1254 50.8938 57.3878 51.6319 56.4807 51.6323ZM50.7554 38.9452C50.8928 40.0767 50.5895 41.1093 49.8785 41.9314C49.0423 42.8982 47.6527 43.5463 46.0712 43.7282V44.9207C46.0712 45.4384 45.6514 45.8582 45.1337 45.8582C44.616 45.8582 44.1962 45.4384 44.1962 44.9207V43.7146C41.8543 43.3928 40.0339 41.912 39.507 39.7982C39.3817 39.2958 39.6874 38.787 40.1898 38.6617C40.6925 38.5373 41.201 38.8423 41.3263 39.3446C41.8119 41.2921 43.7718 41.9419 45.3034 41.9037C46.6185 41.8724 47.8576 41.4019 48.4604 40.7049C48.8263 40.282 48.9682 39.7802 48.8943 39.1711C48.7193 37.7297 47.5168 36.9024 44.9953 36.4884C40.9823 35.8294 40.0479 33.7942 39.9708 32.2031C39.8637 29.9982 41.4073 28.1501 43.8118 27.6047C43.9379 27.5763 44.0662 27.5515 44.1964 27.531V26.3117C44.1964 25.794 44.6162 25.3742 45.1339 25.3742C45.6517 25.3742 46.0714 25.794 46.0714 26.3117V27.5231C47.7879 27.7772 49.4811 28.7716 50.3271 30.7866C50.5275 31.2639 50.3031 31.8135 49.8257 32.0139C49.3481 32.2145 48.7987 31.9899 48.5984 31.5125C47.7852 29.5758 45.8168 29.0729 44.2266 29.4336C43.0249 29.706 41.7679 30.5529 41.8437 32.1124C41.8673 32.6007 41.9394 34.0867 45.2992 34.6383C46.5439 34.8425 50.333 35.4646 50.7554 38.9452ZM45.126 18.1416C46.9669 18.1416 48.4646 16.644 48.4646 14.8029C48.4646 12.9619 46.967 11.4643 45.126 11.4643C43.285 11.4643 41.7872 12.9619 41.7872 14.8029C41.7872 16.644 43.285 18.1416 45.126 18.1416ZM45.126 13.3392C45.933 13.3392 46.5896 13.9959 46.5896 14.8028C46.5896 15.6098 45.933 16.2665 45.126 16.2665C44.3189 16.2665 43.6622 15.6098 43.6622 14.8028C43.6622 13.9959 44.3189 13.3392 45.126 13.3392Z" fill="#2F73F2"/>
</g>
<defs>
<clipPath id="clip0_642_19">
<rect width="60" height="60" fill="white"/>
</clipPath>
</defs>
</svg>
