<svg width="48" height="48" viewBox="0 0 48 48" fill="none" xmlns="http://www.w3.org/2000/svg">
<path d="M41.2223 14.58H28.6568V5.61673C28.6568 4.15498 28.0883 2.78699 27.0601 1.76924C26.0303 0.739485 24.6638 0.172485 23.2118 0.172485H5.93182C2.92957 0.172485 0.486816 2.61524 0.486816 5.61748V17.1375C0.486816 20.1397 2.92957 22.5825 5.93182 22.5825H6.24682V25.7775C6.24682 26.829 6.87457 27.7627 7.84507 28.1557C8.15782 28.2817 8.48257 28.3432 8.80432 28.3432C9.47632 28.3432 10.1311 28.077 10.6103 27.5797L14.2688 23.9415V34.6462C14.2688 38.115 17.0911 40.9372 20.5598 40.9372H29.7031L35.7653 46.9665C36.3106 47.529 37.0418 47.8282 37.7896 47.8282C38.1466 47.8282 38.5066 47.76 38.8516 47.6205C39.9293 47.1847 40.6246 46.1467 40.6246 44.9782V40.9372H41.2216C44.6903 40.9372 47.5126 38.115 47.5126 34.6462V20.871C47.5133 17.4022 44.6911 14.58 41.2223 14.58ZM14.2741 20.7637L9.00832 25.9995C8.91682 26.0947 8.80957 26.1195 8.68882 26.0692C8.60107 26.034 8.49682 25.9545 8.49682 25.7767V21.4567C8.49682 20.835 7.99357 20.3317 7.37182 20.3317H5.93182C4.17007 20.3317 2.73682 18.8985 2.73682 17.1367V5.61673C2.73682 3.85498 4.17007 2.42174 5.93182 2.42174H23.2118C24.0623 2.42174 24.8641 2.75474 25.4731 3.36374C26.0753 3.95999 26.4068 4.76023 26.4068 5.61673V14.58H20.5598C18.8828 14.58 17.3041 15.2355 16.1138 16.425C14.9498 17.589 14.3018 19.1265 14.2741 20.7637ZM45.2633 34.6455C45.2633 36.8737 43.4506 38.6865 41.2223 38.6865H39.5003C38.8793 38.6865 38.3753 39.1905 38.3753 39.8115V44.9775C38.3753 45.3457 38.1181 45.4905 38.0078 45.5347C37.9006 45.5775 37.6246 45.651 37.3673 45.3855L30.9616 39.0142C30.7508 38.805 30.4658 38.6865 30.1681 38.6865H20.5598C18.3316 38.6865 16.5188 36.8737 16.5188 34.6455V20.871C16.5188 19.794 16.9403 18.7807 17.7046 18.0165C18.4696 17.2515 19.4836 16.83 20.5598 16.83H41.2223C43.4506 16.83 45.2633 18.6427 45.2633 20.871V34.6455Z" fill="#2F73F2"/>
<path d="M23.9264 26.1165C23.0114 26.1165 22.2666 26.862 22.2666 27.7762C22.2666 28.6905 23.0121 29.436 23.9264 29.436C24.8421 29.436 25.5876 28.6905 25.5876 27.7762C25.5876 26.862 24.8421 26.1165 23.9264 26.1165Z" fill="#2F73F2"/>
<path d="M30.8902 26.1165C29.9752 26.1165 29.2305 26.862 29.2305 27.7762C29.2305 28.6905 29.976 29.436 30.8902 29.436C31.806 29.436 32.5515 28.6905 32.5515 27.7762C32.5515 26.862 31.8067 26.1165 30.8902 26.1165Z" fill="#2F73F2"/>
<path d="M37.8546 26.1165C36.9396 26.1165 36.1948 26.862 36.1948 27.7762C36.1948 28.6905 36.9403 29.436 37.8546 29.436C38.7703 29.436 39.5158 28.6905 39.5158 27.7762C39.5158 26.862 38.7703 26.1165 37.8546 26.1165Z" fill="#2F73F2"/>
</svg>
