<svg width="67" height="67" viewBox="0 0 67 67" fill="none" xmlns="http://www.w3.org/2000/svg">
<path d="M63.8594 18.8438H57.5781C57.3005 18.8438 57.0342 18.954 56.8379 19.1504C56.6415 19.3467 56.5312 19.613 56.5312 19.8906V59.6719C56.5312 59.9495 56.6415 60.2158 56.8379 60.4121C57.0342 60.6085 57.3005 60.7188 57.5781 60.7188H63.8594C64.137 60.7188 64.4033 60.6085 64.5996 60.4121C64.796 60.2158 64.9062 59.9495 64.9062 59.6719V19.8906C64.9062 19.613 64.796 19.3467 64.5996 19.1504C64.4033 18.954 64.137 18.8438 63.8594 18.8438ZM62.8125 58.625H58.625V20.9375H62.8125V58.625Z" fill="#46C4FF"/>
<path d="M53.3906 60.7188C53.6683 60.7188 53.9346 60.6085 54.1309 60.4121C54.3272 60.2158 54.4375 59.9495 54.4375 59.6719V28.2656C54.4375 27.988 54.3272 27.7217 54.1309 27.5254C53.9346 27.329 53.6683 27.2188 53.3906 27.2188H47.1094C46.8317 27.2188 46.5654 27.329 46.3691 27.5254C46.1728 27.7217 46.0625 27.988 46.0625 28.2656V59.6719C46.0625 59.9495 46.1728 60.2158 46.3691 60.4121C46.5654 60.6085 46.8317 60.7188 47.1094 60.7188H53.3906ZM48.1562 29.3125H52.3438V58.625H48.1562V29.3125Z" fill="#46C4FF"/>
<path d="M42.9219 60.7188C43.1995 60.7188 43.4658 60.6085 43.6621 60.4121C43.8585 60.2158 43.9688 59.9495 43.9688 59.6719V35.5938C43.9688 35.3161 43.8585 35.0498 43.6621 34.8535C43.4658 34.6572 43.1995 34.5469 42.9219 34.5469H36.6406C36.363 34.5469 36.0967 34.6572 35.9004 34.8535C35.704 35.0498 35.5938 35.3161 35.5938 35.5938V59.6719C35.5938 59.9495 35.704 60.2158 35.9004 60.4121C36.0967 60.6085 36.363 60.7188 36.6406 60.7188H42.9219ZM37.6875 36.6406H41.875V58.625H37.6875V36.6406Z" fill="#46C4FF"/>
<path d="M32.4531 60.7188C32.7308 60.7188 32.9971 60.6085 33.1934 60.4121C33.3897 60.2158 33.5 59.9495 33.5 59.6719V43.9688C33.5 43.6911 33.3897 43.4248 33.1934 43.2285C32.9971 43.0322 32.7308 42.9219 32.4531 42.9219H26.1719C25.8942 42.9219 25.6279 43.0322 25.4316 43.2285C25.2353 43.4248 25.125 43.6911 25.125 43.9688V59.6719C25.125 59.9495 25.2353 60.2158 25.4316 60.4121C25.6279 60.6085 25.8942 60.7188 26.1719 60.7188H32.4531ZM27.2188 45.0156H31.4062V58.625H27.2188V45.0156Z" fill="#46C4FF"/>
<path d="M21.9844 60.7188C22.262 60.7188 22.5283 60.6085 22.7246 60.4121C22.921 60.2158 23.0312 59.9495 23.0312 59.6719V48.1562C23.0312 47.8786 22.921 47.6123 22.7246 47.416C22.5283 47.2197 22.262 47.1094 21.9844 47.1094H15.7031C15.4255 47.1094 15.1592 47.2197 14.9629 47.416C14.7665 47.6123 14.6562 47.8786 14.6562 48.1562V59.6719C14.6562 59.9495 14.7665 60.2158 14.9629 60.4121C15.1592 60.6085 15.4255 60.7188 15.7031 60.7188H21.9844ZM16.75 49.2031H20.9375V58.625H16.75V49.2031Z" fill="#46C4FF"/>
<path d="M11.5156 60.7188C11.7933 60.7188 12.0596 60.6085 12.2559 60.4121C12.4522 60.2158 12.5625 59.9495 12.5625 59.6719V53.3906C12.5625 53.113 12.4522 52.8467 12.2559 52.6504C12.0596 52.454 11.7933 52.3438 11.5156 52.3438H5.23438C4.95673 52.3438 4.69045 52.454 4.49412 52.6504C4.2978 52.8467 4.1875 53.113 4.1875 53.3906V59.6719C4.1875 59.9495 4.2978 60.2158 4.49412 60.4121C4.69045 60.6085 4.95673 60.7188 5.23438 60.7188H11.5156ZM6.28125 54.4375H10.4688V58.625H6.28125V54.4375Z" fill="#46C4FF"/>
<path d="M28.2656 18.8438H30.3594C30.637 18.8438 30.9033 18.7335 31.0996 18.5371C31.296 18.3408 31.4062 18.0745 31.4062 17.7969C31.4062 17.5192 31.296 17.2529 31.0996 17.0566C30.9033 16.8603 30.637 16.75 30.3594 16.75H29.3125V15.7031C29.3125 15.4255 29.2022 15.1592 29.0059 14.9629C28.8096 14.7665 28.5433 14.6562 28.2656 14.6562C27.988 14.6562 27.7217 14.7665 27.5254 14.9629C27.329 15.1592 27.2188 15.4255 27.2188 15.7031V16.9301C26.5206 17.1772 25.9322 17.6632 25.5576 18.3021C25.183 18.941 25.0462 19.6918 25.1715 20.4217C25.2968 21.1517 25.676 21.8139 26.2421 22.2914C26.8083 22.7689 27.525 23.031 28.2656 23.0312C28.5433 23.0312 28.8096 23.1415 29.0059 23.3379C29.2022 23.5342 29.3125 23.8005 29.3125 24.0781C29.3125 24.3558 29.2022 24.6221 29.0059 24.8184C28.8096 25.0147 28.5433 25.125 28.2656 25.125H26.1719C25.8942 25.125 25.6279 25.2353 25.4316 25.4316C25.2353 25.6279 25.125 25.8942 25.125 26.1719C25.125 26.4495 25.2353 26.7158 25.4316 26.9121C25.6279 27.1085 25.8942 27.2188 26.1719 27.2188H27.2188V28.2656C27.2188 28.5433 27.329 28.8096 27.5254 29.0059C27.7217 29.2022 27.988 29.3125 28.2656 29.3125C28.5433 29.3125 28.8096 29.2022 29.0059 29.0059C29.2022 28.8096 29.3125 28.5433 29.3125 28.2656V27.0387C30.0107 26.7915 30.599 26.3055 30.9736 25.6666C31.3482 25.0277 31.485 24.277 31.3598 23.547C31.2345 22.817 30.8553 22.1548 30.2891 21.6773C29.723 21.1998 29.0063 20.9378 28.2656 20.9375C27.988 20.9375 27.7217 20.8272 27.5254 20.6309C27.329 20.4346 27.2188 20.1683 27.2188 19.8906C27.2188 19.613 27.329 19.3467 27.5254 19.1504C27.7217 18.954 27.988 18.8438 28.2656 18.8438Z" fill="white"/>
<path d="M63.8594 6.28125H57.5782C57.3005 6.28125 57.0342 6.39155 56.8379 6.58787C56.6416 6.7842 56.5313 7.05048 56.5313 7.32812C56.5313 7.60577 56.6416 7.87205 56.8379 8.06838C57.0342 8.2647 57.3005 8.375 57.5782 8.375H61.332L46.6757 23.0312H40.7842C40.8128 22.6859 40.8282 22.3369 40.8282 21.9844C40.8281 19.5988 40.1487 17.2625 38.8695 15.2488C37.5904 13.2351 35.7642 11.6273 33.6048 10.6134C31.4454 9.59948 29.0419 9.22141 26.6754 9.52339C24.309 9.82537 22.0775 10.7949 20.2419 12.3186C18.4062 13.8424 17.0424 15.8573 16.31 18.1276C15.5775 20.398 15.5066 22.8301 16.1056 25.1392C16.7047 27.4484 17.9488 29.5393 19.6926 31.1674C21.4363 32.7954 23.6076 33.8932 25.9525 34.3325L21.5509 38.7344H13.6094C13.4719 38.7344 13.3358 38.7614 13.2088 38.814C13.0818 38.8667 12.9663 38.9438 12.8691 39.041L2.40038 49.5097C2.20405 49.7061 2.09375 49.9723 2.09375 50.25C2.09375 50.5277 2.20405 50.7939 2.40038 50.9903C2.59671 51.1866 2.863 51.2969 3.14065 51.2969C3.41831 51.2969 3.68459 51.1866 3.88092 50.9903L14.0429 40.8281H21.9844C22.1219 40.8281 22.258 40.8011 22.385 40.7485C22.512 40.6958 22.6275 40.6187 22.7247 40.5215L28.708 34.5382C31.4146 34.4393 34.0172 33.4699 36.1291 31.774C38.241 30.0782 39.7495 27.7464 40.4307 25.125H47.1094C47.2469 25.125 47.383 25.0979 47.51 25.0453C47.637 24.9927 47.7525 24.9156 47.8497 24.8184L62.8125 9.85554V13.6094C62.8125 13.887 62.9228 14.1533 63.1191 14.3496C63.3155 14.546 63.5818 14.6562 63.8594 14.6562C64.1371 14.6562 64.4033 14.546 64.5997 14.3496C64.796 14.1533 64.9063 13.887 64.9063 13.6094V7.32812C64.9063 7.05048 64.796 6.7842 64.5997 6.58787C64.4033 6.39155 64.1371 6.28125 63.8594 6.28125ZM28.2657 32.4531C26.1951 32.4531 24.1711 31.8391 22.4495 30.6888C20.728 29.5385 19.3861 27.9035 18.5938 25.9906C17.8014 24.0777 17.5941 21.9728 17.9981 19.942C18.402 17.9113 19.399 16.0459 20.8631 14.5819C22.3272 13.1178 24.1926 12.1207 26.2233 11.7168C28.254 11.3128 30.359 11.5202 32.2719 12.3125C34.1848 13.1049 35.8198 14.4467 36.9701 16.1682C38.1204 17.8898 38.7344 19.9139 38.7344 21.9844C38.7313 24.7599 37.6273 27.4208 35.6647 29.3834C33.7021 31.346 31.0412 32.45 28.2657 32.4531Z" fill="white"/>
</svg>
