<svg width="55" height="61" viewBox="0 0 55 61" fill="none" xmlns="http://www.w3.org/2000/svg">
<path d="M27.5 50.425C26.0786 50.425 24.9219 51.708 24.9219 53.2844C24.9219 54.8609 26.0786 56.1438 27.5 56.1438C28.9214 56.1438 30.0781 54.8609 30.0781 53.2844C30.0781 51.708 28.9214 50.425 27.5 50.425ZM27.5 54.2375C27.0256 54.2375 26.6406 53.8105 26.6406 53.2844C26.6406 52.7583 27.0256 52.3313 27.5 52.3313C27.9744 52.3313 28.3594 52.7583 28.3594 53.2844C28.3594 53.8105 27.9744 54.2375 27.5 54.2375Z" fill="#46C4FF"/>
<path d="M50.7031 21.8313H42.1094V7.53442C42.1094 3.85536 39.4101 0.862549 36.0938 0.862549H18.9062C15.5899 0.862549 12.8906 3.85536 12.8906 7.53442V10.3938H4.29688C2.40109 10.3938 0.859375 12.1037 0.859375 14.2063V29.4563C0.859375 31.5589 2.40109 33.2688 4.29688 33.2688H12.8906V53.2844C12.8906 56.9625 15.5899 59.9563 18.9062 59.9563H36.0938C39.4101 59.9563 42.1094 56.9625 42.1094 53.2844V44.7063H50.7031C52.5989 44.7063 54.1406 42.9964 54.1406 40.8938V25.6438C54.1406 23.5422 52.5989 21.8313 50.7031 21.8313ZM18.9062 2.7688H36.0938C38.1683 2.7688 39.9042 4.40913 40.3038 6.5813H14.6962C15.0958 4.40913 16.8317 2.7688 18.9062 2.7688ZM2.57812 29.4563V14.2063C2.57812 13.155 3.34898 12.3 4.29688 12.3H21.4844C22.4323 12.3 23.2031 13.155 23.2031 14.2063V20.8782C23.2031 21.1308 23.2934 21.3738 23.4549 21.552L26.2848 24.6907H24.0625C23.5873 24.6907 23.2031 25.1177 23.2031 25.6438V29.4563C23.2031 30.5076 22.4323 31.3625 21.4844 31.3625H4.29688C3.34898 31.3625 2.57812 30.5076 2.57812 29.4563ZM36.0938 58.05H18.9062C16.537 58.05 14.6094 55.9122 14.6094 53.2844V48.5188H40.3906V53.2844C40.3906 55.9122 38.463 58.05 36.0938 58.05ZM40.3906 46.6125H14.6094V33.2688H21.4844C23.3802 33.2688 24.9219 31.5589 24.9219 29.4563V26.5969H28.3594C28.7066 26.5969 29.0211 26.3644 29.1534 26.0088C29.2866 25.6524 29.2127 25.2425 28.967 24.9699L24.9219 20.4836V14.2063C24.9219 12.1037 23.3802 10.3938 21.4844 10.3938H14.6094V8.48755H40.3906V21.8313H33.5156C31.6198 21.8313 30.0781 23.5412 30.0781 25.6438V31.3625H26.6406C26.2934 31.3625 25.9789 31.5942 25.8466 31.9506C25.7134 32.3071 25.7873 32.7169 26.033 32.9895L30.0781 37.4759V40.8938C30.0781 42.9964 31.6198 44.7063 33.5156 44.7063H40.3906V46.6125ZM52.4219 40.8938C52.4219 41.9451 51.651 42.8 50.7031 42.8H33.5156C32.5677 42.8 31.7969 41.9451 31.7969 40.8938V37.0813C31.7969 36.8278 31.7066 36.5857 31.5451 36.4074L28.7152 33.2688H30.9375C31.4127 33.2688 31.7969 32.8428 31.7969 32.3157V25.6438C31.7969 24.5925 32.5677 23.7375 33.5156 23.7375H50.7031C51.651 23.7375 52.4219 24.5925 52.4219 25.6438V40.8938Z" fill="#46C4FF"/>
<path d="M17.1686 15.3595L15.4885 14.9602L14.8973 18.0188H12.3578L12.8717 15.3586L11.1916 14.9592L10.6004 18.0178H6.875V19.9241H10.2317L9.49523 23.7366H6.875V25.6428H9.12656L8.61266 28.303L10.2927 28.7023L10.884 25.6438H13.4234L12.9095 28.3039L14.5896 28.7033L15.1809 25.6447H18.9062V23.7385H15.5495L16.286 19.926H18.9062V18.0197H16.6547L17.1686 15.3595ZM13.7921 23.7375H11.2527L11.9891 19.925H14.5286L13.7921 23.7375Z" fill="white"/>
<path d="M46.3873 26.797L44.7073 26.3977L44.116 29.4563H41.5766L42.0905 26.7961L40.4104 26.3967L39.8191 29.4553H36.0938V31.3616H39.4505L38.714 35.1741H36.0938V37.0803H38.3453L37.8314 39.7395L39.5115 40.1398L40.1027 37.0803H42.6422L42.1283 39.7395L43.8084 40.1398L44.3996 37.0803H48.125V35.1741H44.7683L45.5048 31.3616H48.125V29.4553H45.8734L46.3873 26.797ZM43.0109 35.175H40.4714L41.2079 31.3625H43.7473L43.0109 35.175Z" fill="white"/>
</svg>
