<svg width="61" height="61" viewBox="0 0 61 61" fill="none" xmlns="http://www.w3.org/2000/svg">
<path d="M39.3283 19.3994C33.3959 10.6717 25.4726 6.03298 21.3233 8.87518C20.8664 9.19694 20.4693 9.59623 20.1502 10.055C20.1502 10.0885 10.5444 29.528 10.5444 29.528L5.18173 33.1612C4.35849 33.7201 3.65341 34.4356 3.10679 35.267C2.56016 36.0984 2.18269 37.0294 1.99594 38.0067C1.80919 38.984 1.81682 39.9885 2.0184 40.9629C2.21997 41.9373 2.61154 42.8624 3.17074 43.6854L3.41206 44.0407C4.54237 45.6872 6.27625 46.8217 8.23762 47.1982C10.199 47.5747 12.2297 47.1627 13.8893 46.0517L22.503 58.741C23.77 60.3029 26.2033 61.858 29.2063 60.028C29.7384 59.6831 30.1922 59.2304 30.5385 58.6993C30.8849 58.1682 31.1161 57.5705 31.2173 56.9445C31.3387 56.3219 31.3354 55.6815 31.2076 55.0601C31.0799 54.4388 30.8303 53.849 30.4733 53.3247L22.8851 42.1302C22.8851 42.1302 40.8232 40.7024 40.8902 40.6756C41.4503 40.5584 41.9813 40.3305 42.4521 40.0053C44.5837 38.5574 45.3479 35.5208 44.6105 31.4519C43.9469 27.7047 42.0633 23.4616 39.3283 19.3994ZM5.36272 42.7201L5.1214 42.3648C4.73558 41.7969 4.46557 41.1583 4.32683 40.4859C4.18809 39.8134 4.18334 39.1201 4.31285 38.4458C4.44236 37.7715 4.70358 37.1294 5.08157 36.5561C5.45957 35.9829 5.9469 35.4898 6.51568 35.1052L11.1477 31.9546L17.2611 40.9572L12.6291 44.1077C12.061 44.494 11.4223 44.7646 10.7495 44.9039C10.0768 45.0433 9.38317 45.0487 8.70834 44.9198C8.03351 44.7909 7.39069 44.5303 6.81663 44.1529C6.24256 43.7755 5.74851 43.2886 5.36272 42.7201ZM28.5427 54.6453C28.9091 55.1904 29.0443 55.8586 28.9186 56.5033C28.7929 57.148 28.4167 57.7165 27.8724 58.0841C27.3262 58.4508 26.657 58.5861 26.0112 58.4605C25.3654 58.3349 24.7958 57.9585 24.4269 57.4138L15.84 44.7646L19.2922 42.4185L20.2038 42.3447L28.5427 54.6453ZM19.4799 40.0455L12.8168 30.2319L19.1715 17.2744C19.7882 20.9143 21.5914 25.2379 24.4738 29.4811C27.3562 33.7243 30.7079 36.9955 33.8584 38.9126L19.4799 40.0455ZM39.2546 38.4836C36.0504 38.2758 30.8352 34.6628 26.4178 28.1539C22.0003 21.645 20.5658 15.4846 21.5512 12.4212C21.7291 11.8462 22.0842 11.3421 22.5658 10.981C23.0473 10.6198 23.6307 10.4201 24.2325 10.4102C27.4099 10.4102 32.8194 14.0434 37.3643 20.74C39.9249 24.5073 41.7884 28.4488 42.2979 31.8943C43.2967 38.4836 39.2546 38.4836 39.2546 38.4836Z" fill="#46C4FF"/>
<path d="M30.9493 19.6474C30.1282 19.4861 29.2832 19.4902 28.4637 19.6594C27.6442 19.8286 26.8667 20.1595 26.1766 20.6328C26.0494 20.7208 25.9408 20.833 25.8569 20.963C25.7731 21.093 25.7157 21.2383 25.688 21.3905C25.6603 21.5427 25.6628 21.6988 25.6955 21.85C25.7281 22.0012 25.7902 22.1445 25.8783 22.2717C25.9663 22.3989 26.0785 22.5075 26.2085 22.5914C26.3385 22.6752 26.4838 22.7326 26.636 22.7603C26.7882 22.788 26.9443 22.7855 27.0955 22.7528C27.2467 22.7202 27.39 22.6581 27.5172 22.57C27.9543 22.2734 28.4455 22.0657 28.9628 21.9589C29.4801 21.8521 30.0134 21.8482 30.5323 21.9475C31.0511 22.0467 31.5453 22.2472 31.9866 22.5375C32.4279 22.8278 32.8078 23.2021 33.1044 23.6392C33.4011 24.0763 33.6088 24.5675 33.7156 25.0848C33.8224 25.6021 33.8263 26.1354 33.727 26.6542C33.6277 27.1731 33.4272 27.6672 33.1369 28.1086C32.8467 28.5499 32.4723 28.9297 32.0353 29.2264C31.8292 29.3687 31.674 29.5732 31.5926 29.8101C31.5111 30.0469 31.5076 30.3036 31.5825 30.5426C31.6574 30.7816 31.8068 30.9903 32.0089 31.1382C32.211 31.2862 32.4551 31.3655 32.7056 31.3647C32.9445 31.3692 33.1789 31.2989 33.3759 31.1637C34.4185 30.4574 35.2281 29.4575 35.702 28.2908C36.1759 27.124 36.2928 25.8428 36.038 24.6096C35.7831 23.3763 35.168 22.2464 34.2705 21.3631C33.3729 20.4797 32.2334 19.8826 30.9962 19.6474H30.9493Z" fill="white"/>
<path d="M40.776 11.2415H40.89C41.1801 11.2414 41.4599 11.1337 41.6753 10.9393C41.8908 10.745 42.0265 10.4777 42.0563 10.1891L42.9613 1.39434C42.9819 1.23882 42.9711 1.08076 42.9295 0.929493C42.8879 0.778229 42.8165 0.636838 42.7193 0.513687C42.6221 0.390536 42.5012 0.288126 42.3638 0.212515C42.2263 0.136904 42.0751 0.0896297 41.9191 0.0734878C41.763 0.0573458 41.6053 0.0726645 41.4553 0.118538C41.3053 0.164411 41.166 0.239906 41.0457 0.340558C40.9254 0.441209 40.8265 0.564972 40.7548 0.704524C40.6832 0.844075 40.6402 0.996581 40.6285 1.15302L39.7303 9.95445C39.6984 10.2638 39.7907 10.5731 39.9868 10.8144C40.1828 11.0557 40.4667 11.2094 40.776 11.2415Z" fill="white"/>
<path d="M55.9392 9.43153C55.767 9.1719 55.499 8.99094 55.1939 8.92814C54.8887 8.86535 54.5711 8.92582 54.3103 9.09637L46.139 14.459C45.9268 14.5991 45.7659 14.8044 45.6805 15.0438C45.5951 15.2833 45.5898 15.5441 45.6654 15.7868C45.741 16.0296 45.8935 16.2412 46.0998 16.3898C46.3061 16.5384 46.5551 16.616 46.8093 16.6108C47.0465 16.6162 47.2798 16.5509 47.4797 16.4231L55.651 11.0604C55.9045 10.8821 56.0771 10.6106 56.1311 10.3054C56.1851 10.0002 56.1161 9.68605 55.9392 9.43153Z" fill="white"/>
<path d="M58.4392 23.7498L48.9339 22.0405C48.6272 21.9854 48.3112 22.0544 48.0554 22.2322C47.7996 22.4101 47.6249 22.6823 47.5698 22.989C47.5147 23.2957 47.5837 23.6117 47.7615 23.8675C47.9394 24.1233 48.2116 24.298 48.5183 24.3531L58.0169 26.0625H58.2247C58.5236 26.0712 58.8145 25.9655 59.0381 25.7669C59.2616 25.5683 59.4009 25.2918 59.4274 24.994C59.4539 24.6961 59.3657 24.3994 59.1808 24.1644C58.9959 23.9295 58.7282 23.774 58.4325 23.7297L58.4392 23.7498Z" fill="white"/>
</svg>
