<svg width="59" height="59" viewBox="0 0 59 59" fill="none" xmlns="http://www.w3.org/2000/svg">
<path d="M51.9495 24.1251C51.0527 23.1988 50.6397 21.9362 50.8226 20.6559L50.9878 19.4877C51.4834 15.989 49.147 12.7676 45.666 12.1599L44.5037 11.9534C43.2352 11.7292 42.1555 10.9504 41.5537 9.8117L40.9991 8.7733C39.3412 5.6522 35.5593 4.4191 32.3851 5.9767L31.3231 6.49C30.1667 7.0564 28.8333 7.0564 27.6769 6.49L26.6208 5.9708C23.4466 4.4191 19.6647 5.6463 18.0068 8.7674L17.4522 9.8058C16.8445 10.9445 15.7707 11.7292 14.5022 11.9475L13.3399 12.154C9.85894 12.7617 7.52254 15.9831 8.01814 19.4818L8.18334 20.65C8.36624 21.9303 7.95324 23.1929 7.05644 24.1192L6.23634 24.9629C3.77604 27.4999 3.77604 31.4824 6.23634 34.0194L7.05644 34.869C7.95324 35.7953 8.36624 37.0579 8.18334 38.3382L8.01814 39.5064C7.52254 43.0051 9.85894 46.2265 13.3399 46.8342L14.5022 47.0407C15.7707 47.2649 16.8504 48.0437 17.4522 49.1824L18.0068 50.2208C19.1809 52.4274 21.4111 53.69 23.7475 53.69C24.7092 53.69 25.6945 53.4717 26.6208 53.0174L27.6769 52.51C28.8333 51.9436 30.1667 51.9436 31.3231 52.51L32.3792 53.0292C35.5534 54.5809 39.3353 53.3537 40.9932 50.2326L41.5478 49.1942C42.1555 48.0555 43.2293 47.2708 44.4978 47.0525L45.6601 46.846C49.1411 46.2383 51.4775 43.0169 50.9819 39.5182L50.8167 38.35C50.6338 37.0697 51.0468 35.8071 51.9436 34.8808L52.7637 34.0371C55.224 31.5001 55.224 27.5176 52.7637 24.9806L51.9495 24.1251ZM51.0704 32.391L50.2503 33.2347C48.8461 34.6861 48.1971 36.6744 48.4803 38.6745L48.6455 39.8427C48.9641 42.0729 47.4714 44.1261 45.253 44.5155L44.0907 44.722C42.0965 45.0701 40.4091 46.2973 39.4651 48.085L38.9105 49.1234C37.8544 51.1117 35.4413 51.9023 33.4176 50.9111L32.3615 50.3919C30.5443 49.501 28.4557 49.501 26.6385 50.3919L25.5824 50.9111C23.5587 51.9023 21.1456 51.1176 20.0895 49.1234L19.5349 48.085C18.585 46.2973 16.8976 45.0701 14.9093 44.722L13.747 44.5155C11.5286 44.1261 10.0359 42.0729 10.3545 39.8427L10.5197 38.6745C10.8029 36.6685 10.1598 34.6861 8.74974 33.2347L7.92964 32.3851C6.36024 30.7626 6.36024 28.2315 7.92964 26.609L8.74974 25.7653C10.1539 24.3139 10.8029 22.3256 10.5197 20.3255L10.3545 19.1573C10.0359 16.9271 11.5286 14.8739 13.747 14.4845L14.9093 14.278C16.9035 13.9299 18.5909 12.7027 19.5349 10.915L20.0895 9.8766C20.8388 8.4665 22.2607 7.6641 23.7475 7.6641C24.3611 7.6641 24.9865 7.7998 25.5824 8.0889L26.6385 8.6081C28.4557 9.499 30.5443 9.499 32.3615 8.6081L33.4176 8.0889C35.4413 7.0977 37.8544 7.8824 38.9105 9.8766L39.4651 10.915C40.415 12.7027 42.1024 13.9299 44.0907 14.278L45.253 14.4845C47.4714 14.8739 48.9641 16.9271 48.6455 19.1573L48.4803 20.3255C48.1971 22.3315 48.8402 24.3139 50.2503 25.7653L51.0704 26.6149C52.6398 28.2315 52.6398 30.7685 51.0704 32.391Z" fill="#2F73F2"/>
<path d="M38.887 20.1131C38.4268 19.6529 37.6775 19.6529 37.2173 20.1131L20.1132 37.2172C19.653 37.6774 19.653 38.4267 20.1132 38.8869C20.3433 39.117 20.6442 39.235 20.9451 39.235C21.246 39.235 21.5469 39.117 21.777 38.8869L38.8811 21.7828C39.3472 21.3226 39.3472 20.5733 38.887 20.1131Z" fill="#2F73F2"/>
<path d="M24.7032 26.3788C25.9894 26.3788 27.2697 25.8891 28.2491 24.9097C30.202 22.9568 30.202 19.7708 28.2491 17.8179C26.2962 15.865 23.1102 15.865 21.1573 17.8179C20.2074 18.7619 19.6882 20.0245 19.6882 21.3638C19.6882 22.7031 20.2074 23.9657 21.1573 24.9097C22.1367 25.8891 23.417 26.3788 24.7032 26.3788ZM22.827 19.4876C23.3462 18.9684 24.0247 18.7088 24.7032 18.7088C25.3817 18.7088 26.0602 18.9684 26.5794 19.4876C27.6119 20.5201 27.6119 22.2075 26.5794 23.24C25.541 24.2725 23.8595 24.2725 22.827 23.24C22.3255 22.7385 22.0482 22.0718 22.0482 21.3638C22.0482 20.6558 22.3255 19.9891 22.827 19.4876Z" fill="#2F73F2"/>
<path d="M30.7508 34.0902C28.7979 36.0431 28.7979 39.2291 30.7508 41.182C31.7302 42.1614 33.0105 42.6511 34.2967 42.6511C35.5829 42.6511 36.8632 42.1614 37.8426 41.182C38.7925 40.2321 39.3117 38.9754 39.3117 37.6361C39.3117 36.2968 38.7925 35.0342 37.8426 34.0902C35.8897 32.1314 32.7096 32.1314 30.7508 34.0902ZM36.1729 39.5123C35.1404 40.5448 33.453 40.5448 32.4205 39.5123C31.388 38.4798 31.388 36.7924 32.4205 35.7599C32.9397 35.2407 33.6182 34.9811 34.2967 34.9811C34.9752 34.9811 35.6537 35.2407 36.1729 35.7599C36.6744 36.2614 36.9517 36.9281 36.9517 37.6361C36.9517 38.3441 36.6744 39.0108 36.1729 39.5123Z" fill="#2F73F2"/>
</svg>
