<svg width="56" height="56" viewBox="0 0 56 56" fill="none" xmlns="http://www.w3.org/2000/svg">
<path fill-rule="evenodd" clip-rule="evenodd" d="M27.3815 3.67733C27.7597 3.44089 28.2399 3.44089 28.6182 3.67733L33.5865 6.7826C36.3182 8.48985 39.3891 9.58124 42.5855 9.98078L46.8112 10.509C47.395 10.582 47.8332 11.0783 47.8332 11.6667V26.7342C47.8332 35.1815 43.4815 43.0332 36.3182 47.5102L28.6182 52.3227C28.2399 52.559 27.7597 52.559 27.3815 52.3227L19.6815 47.5102C12.5182 43.0332 8.1665 35.1815 8.1665 26.7342V11.6667C8.1665 11.0783 8.60463 10.582 9.18846 10.509L13.4142 9.98078C16.6106 9.58124 19.6815 8.48985 22.4131 6.7826L27.3815 3.67733ZM27.9998 6.04244L23.6498 8.76124C20.6306 10.6482 17.2365 11.8545 13.7036 12.2961L10.4998 12.6966V26.7342C10.4998 34.377 14.4371 41.4808 20.9182 45.5315L27.9998 49.9576L35.0815 45.5315C41.5626 41.4808 45.4998 34.377 45.4998 26.7342V12.6966L42.2959 12.2961C38.7633 11.8545 35.369 10.6482 32.3499 8.76124L27.9998 6.04244Z" fill="#2F73F2"/>
<path fill-rule="evenodd" clip-rule="evenodd" d="M36.9917 21.825L27.6584 31.1584C27.2027 31.6139 26.464 31.6139 26.0085 31.1584L21.3418 26.4917L22.9917 24.8418L26.8333 28.6834L35.3418 20.175L36.9917 21.825Z" fill="#2F73F2"/>
</svg>
