<svg width="48" height="48" viewBox="0 0 48 48" fill="none" xmlns="http://www.w3.org/2000/svg">
<path d="M26.24 48H21.76C20.246 48 18.968 46.866 18.788 45.36L18.31 41.608C17.356 41.298 16.436 40.916 15.562 40.47L12.574 42.792C11.362 43.73 9.656 43.622 8.604 42.54L5.454 39.39C4.38 38.348 4.272 36.642 5.21 35.432L7.532 32.442C7.084 31.568 6.702 30.648 6.394 29.694L2.634 29.216C1.134 29.032 0 27.754 0 26.24V21.76C0 20.246 1.134 18.968 2.64 18.788L6.392 18.31C6.702 17.356 7.084 16.436 7.53 15.562L5.21 12.574C4.27 11.362 4.38 9.654 5.464 8.602L8.614 5.452C9.656 4.378 11.364 4.272 12.572 5.208L15.56 7.532C16.434 7.086 17.354 6.704 18.31 6.394L18.788 2.634C18.968 1.134 20.246 0 21.76 0H26.24C27.754 0 29.032 1.134 29.212 2.64L29.69 6.392C30.646 6.702 31.566 7.084 32.44 7.53L35.428 5.208C36.642 4.27 38.346 4.378 39.398 5.462L42.548 8.612C43.622 9.654 43.73 11.36 42.792 12.57L40.47 15.56C40.918 16.434 41.3 17.354 41.608 18.308L45.368 18.786C46.866 18.968 48 20.246 48 21.76V26.24C48 27.754 46.866 29.032 45.36 29.212L41.608 29.69C41.298 30.644 40.916 31.564 40.47 32.438L42.792 35.426C43.732 36.638 43.622 38.344 42.538 39.396L39.388 42.546C38.346 43.62 36.638 43.73 35.43 42.79L32.44 40.468C31.566 40.916 30.646 41.298 29.692 41.606L29.214 45.366C29.032 46.866 27.754 48 26.24 48ZM15.46 38.28C15.626 38.28 15.796 38.322 15.948 38.406C17.05 39.022 18.244 39.518 19.496 39.878C19.88 39.988 20.162 40.316 20.212 40.712L20.772 45.112C20.832 45.614 21.266 46 21.76 46H26.24C26.734 46 27.168 45.614 27.226 45.122L27.788 40.714C27.838 40.318 28.12 39.99 28.504 39.88C29.756 39.52 30.95 39.024 32.052 38.408C32.402 38.212 32.838 38.246 33.152 38.492L36.652 41.212C37.054 41.524 37.618 41.498 37.962 41.144L41.132 37.974C41.494 37.622 41.522 37.058 41.21 36.654L38.49 33.154C38.244 32.838 38.21 32.404 38.406 32.054C39.022 30.952 39.518 29.758 39.878 28.506C39.988 28.122 40.316 27.84 40.712 27.79L45.112 27.23C45.614 27.168 46 26.734 46 26.24V21.76C46 21.266 45.614 20.832 45.122 20.774L40.714 20.212C40.318 20.162 39.99 19.88 39.88 19.496C39.52 18.244 39.024 17.05 38.408 15.948C38.212 15.598 38.244 15.164 38.492 14.848L41.212 11.348C41.526 10.944 41.498 10.38 41.146 10.04L37.976 6.87C37.626 6.506 37.06 6.478 36.656 6.792L33.156 9.512C32.838 9.758 32.404 9.792 32.054 9.596C30.956 8.98 29.762 8.486 28.506 8.124C28.122 8.014 27.84 7.686 27.79 7.29L27.23 2.89C27.168 2.386 26.734 2 26.24 2H21.76C21.266 2 20.832 2.386 20.774 2.878L20.212 7.286C20.162 7.682 19.88 8.01 19.496 8.122C18.24 8.482 17.046 8.978 15.948 9.592C15.598 9.79 15.164 9.754 14.846 9.51L11.346 6.79C10.942 6.476 10.38 6.504 10.038 6.856L6.868 10.028C6.506 10.38 6.478 10.944 6.79 11.348L9.51 14.848C9.756 15.164 9.79 15.598 9.594 15.948C8.976 17.05 8.482 18.244 8.122 19.496C8.012 19.88 7.684 20.162 7.288 20.212L2.888 20.772C2.386 20.832 2 21.266 2 21.76V26.24C2 26.734 2.386 27.168 2.878 27.226L7.286 27.788C7.682 27.838 8.01 28.12 8.12 28.504C8.48 29.756 8.976 30.95 9.592 32.052C9.788 32.402 9.756 32.836 9.508 33.152L6.788 36.652C6.474 37.056 6.502 37.62 6.854 37.96L10.024 41.13C10.374 41.492 10.936 41.52 11.344 41.208L14.844 38.488C15.026 38.352 15.242 38.28 15.46 38.28Z" fill="#2F73F2"/>
<path d="M24 34C18.486 34 14 29.514 14 24C14 18.486 18.486 14 24 14C29.514 14 34 18.486 34 24C34 29.514 29.514 34 24 34ZM24 16C19.588 16 16 19.588 16 24C16 28.412 19.588 32 24 32C28.412 32 32 28.412 32 24C32 19.588 28.412 16 24 16Z" fill="#2F73F2"/>
</svg>
