<svg width="62" height="62" viewBox="0 0 62 62" fill="none" xmlns="http://www.w3.org/2000/svg">
<g clip-path="url(#clip0_570_81)">
<path d="M40.8167 48.5667H26.35C25.7793 48.5667 25.3167 49.0293 25.3167 49.6C25.3167 50.1707 25.7793 50.6333 26.35 50.6333H40.8167C41.3873 50.6333 41.85 50.1707 41.85 49.6C41.85 49.0293 41.3873 48.5667 40.8167 48.5667Z" fill="#46C4FF"/>
<path d="M12.9902 53.8718C11.4692 53.0551 10.2813 51.7327 9.63185 50.1332C8.72672 47.7084 8.5275 45.0767 9.05732 42.5433C9.15491 41.9809 8.77809 41.4459 8.21567 41.3483C7.65325 41.2507 7.11821 41.6275 7.02062 42.1899C6.42174 45.0935 6.65931 48.1074 7.70572 50.8813C8.52095 52.9217 10.0241 54.6127 11.9548 55.6615C12.2747 55.849 12.6705 55.8508 12.9921 55.6661C13.3136 55.4814 13.5115 55.1386 13.5107 54.7678C13.5099 54.397 13.3105 54.055 12.9881 53.8718H12.9902Z" fill="#46C4FF"/>
<path d="M57.0793 10.7539C59.3093 9.47669 60.0817 6.63354 58.8045 4.40355C57.5273 2.17356 54.6841 1.40119 52.4541 2.6784L49.9638 4.10233C49.4509 1.73474 47.3723 0.0340499 44.9501 0H22.2167C19.3194 0.0498221 17.0086 2.43455 17.0501 5.332V6.22067C16.2261 5.59084 15.2316 5.22358 14.196 5.16667C12.8203 5.10333 11.4804 5.6155 10.4977 6.58027C9.40656 7.62149 8.78742 9.06279 8.7834 10.571V10.974C8.7834 15.7625 7.9123 27.217 5.89937 31.991C4.96009 34.1734 4.1776 36.4201 3.55783 38.7138C2.1742 43.9663 2.2672 48.3094 3.85337 52.3828C5.3176 56.1441 8.4145 58.9858 12.8082 60.5978C15.4818 61.5425 18.2993 62.0149 21.1348 61.9938C24.9066 62.0531 28.6366 61.1976 32.0055 59.5004C32.8601 59.0436 35.6501 57.2963 37.9875 55.8H44.9501C47.8474 55.7502 50.1582 53.3655 50.1167 50.468V43.4H52.1834C54.412 43.4064 56.3919 41.979 57.0901 39.8626C57.7883 37.7462 57.0463 35.4209 55.2514 34.1C56.5705 33.1361 57.3504 31.6005 57.3504 29.9667C57.3504 28.3329 56.5705 26.7972 55.2514 25.8333C57.0463 24.5125 57.7883 22.1871 57.0901 20.0707C56.3919 17.9543 54.412 16.5269 52.1834 16.5333H50.1167V14.7333L57.0793 10.7539ZM53.4802 4.47227C54.7198 3.76232 56.3002 4.19165 57.0101 5.4312C57.72 6.67075 57.2907 8.25112 56.0512 8.96107L50.1167 12.3483V6.39633L53.4802 4.47227ZM42.7997 2.06667L40.9397 4.39167C40.5482 4.88285 39.9537 5.16827 39.3256 5.16667H27.8391C27.211 5.16827 26.6165 4.88285 26.225 4.39167L24.365 2.06667H42.7997ZM31.0249 57.6817C26.2281 60.2774 19.0289 60.6784 13.5202 58.6582C10.0453 57.5451 7.2221 54.9827 5.77847 51.6315C4.34007 47.9374 4.27187 44.1151 5.55527 39.2439C6.15027 37.0439 6.90134 34.8891 7.80277 32.7959C9.95623 27.6933 10.8501 16.0632 10.8501 10.974V10.571C10.8536 9.62806 11.2413 8.72728 11.9237 8.07653C12.4978 7.50321 13.2862 7.19728 14.0968 7.23333C15.7473 7.31154 17.0464 8.67062 17.0501 10.323V50.468C17.0086 53.3655 19.3194 55.7502 22.2167 55.8H34.1238C32.7123 56.6845 31.4992 57.4265 31.0249 57.6817ZM48.0501 50.468C48.0929 52.2246 46.7066 53.6849 44.9501 53.7333H22.2167C20.4602 53.6849 19.0739 52.2246 19.1167 50.468V5.332C19.0893 3.75682 20.2085 2.39429 21.759 2.11523L24.611 5.68333C25.3939 6.66581 26.5828 7.23669 27.8391 7.23333H39.3256C40.5819 7.23669 41.7708 6.66581 42.5538 5.68333L45.4068 2.11627C46.9573 2.39482 48.0769 3.75688 48.0501 5.332V50.468ZM55.2834 38.2333C55.2834 39.9454 53.8955 41.3333 52.1834 41.3333H50.1167V35.1333H52.1834C53.8955 35.1333 55.2834 36.5213 55.2834 38.2333ZM55.2834 29.9667C55.2834 31.6788 53.8955 33.0667 52.1834 33.0667H50.1167V26.8667H52.1834C53.8955 26.8667 55.2834 28.2546 55.2834 29.9667ZM50.1167 18.6H52.1834C53.8955 18.6 55.2834 19.9879 55.2834 21.7C55.2834 23.4121 53.8955 24.8 52.1834 24.8H50.1167V18.6Z" fill="#46C4FF"/>
<path d="M43.9167 20.0539V14.4667C43.9167 13.3253 42.9914 12.4 41.8501 12.4H38.7501C37.6836 12.4054 36.7964 13.2215 36.702 14.2838L34.9391 12.8733C34.1445 12.2449 33.0222 12.2449 32.2277 12.8733L21.9729 21.08C21.2758 21.6236 21.0052 22.5525 21.3012 23.3854C21.5946 24.2138 22.3714 24.7731 23.2501 24.7887V37.2C23.2501 38.3414 24.1753 39.2667 25.3167 39.2667H29.4501C30.0208 39.2667 30.4834 38.8041 30.4834 38.2334C30.4834 37.6627 30.0208 37.2 29.4501 37.2H25.3167V24.8H41.8501V37.2H37.7167C37.146 37.2 36.6834 37.6627 36.6834 38.2334C36.6834 38.8041 37.146 39.2667 37.7167 39.2667H41.8501C42.9914 39.2667 43.9167 38.3414 43.9167 37.2V24.7887C44.7965 24.7725 45.5736 24.2113 45.8656 23.3813C46.1616 22.5483 45.8909 21.6195 45.1939 21.0759L43.9167 20.0539ZM38.7501 14.4667H41.8501V18.4016L38.7501 15.9216V14.4667ZM33.5183 14.4874C33.5573 14.4597 33.6095 14.4597 33.6485 14.4874L43.8382 22.7334L23.2635 22.69L33.5183 14.4874Z" fill="white"/>
<path d="M33.5834 43.4C34.1541 43.4 34.6167 42.9374 34.6167 42.3667V31.4278L36.9862 33.7973C37.3916 34.1889 38.0361 34.1833 38.4347 33.7847C38.8333 33.3861 38.8389 32.7416 38.4473 32.3361L34.314 28.2028C33.9105 27.7994 33.2564 27.7994 32.8528 28.2028L28.7195 32.3361C28.3279 32.7416 28.3335 33.3861 28.7321 33.7847C29.1307 34.1833 29.7752 34.1889 30.1806 33.7973L32.5501 31.4278V42.3667C32.5501 42.9374 33.0127 43.4 33.5834 43.4Z" fill="white"/>
</g>
<defs>
<clipPath id="clip0_570_81">
<rect width="62" height="62" fill="white"/>
</clipPath>
</defs>
</svg>
