<svg width="140" height="44" viewBox="0 0 140 44" fill="none" xmlns="http://www.w3.org/2000/svg">
<path d="M13.697 13.7644C10.246 8.36875 22.9146 11.4244 27.864 13.7644L34.6751 3.11991C30.9517 1.08585 21.7159 -1.96371 14.5597 2.11054C7.40357 6.18478 11.0028 11.5774 13.697 13.7644Z" fill="#46C4FF"/>
<path d="M9.06548 10.6903C4.997 7.31344 7.91518 2.15641 9.88284 0C5.47837 0.688222 -0.469977 6.561 0.0295008 13.8561C0.528978 21.1512 7.7487 25.4181 11.9261 26.9781C16.1036 28.5381 20.6443 29.5016 25.5483 33.5391C29.4714 36.7691 26.7894 41.8589 24.958 44C31.0879 42.3483 34.1302 36.3837 34.4935 33.5391C34.8567 30.6945 35.0837 25.0511 28.1819 20.0959C21.28 15.1408 14.1511 14.9114 9.06548 10.6903Z" fill="#2F73F2"/>
<path d="M124.048 31.5651V17.3321H127.257L127.541 19.7426C127.977 18.9008 128.602 18.2313 129.416 17.7339C130.249 17.2365 131.224 16.9878 132.341 16.9878C134.083 16.9878 135.436 17.5426 136.402 18.6521C137.367 19.7617 137.85 21.3878 137.85 23.5303V31.5651H134.215V23.8747C134.215 22.6504 133.969 21.713 133.477 21.0625C132.985 20.4121 132.218 20.0869 131.176 20.0869C130.154 20.0869 129.312 20.4504 128.649 21.1773C128.005 21.9043 127.683 22.9182 127.683 24.219V31.5651H124.048Z" fill="#102D47"/>
<path d="M113.072 31.5651V17.3321H116.31L116.651 20.0008C117.162 19.0826 117.853 18.3556 118.724 17.82C119.613 17.2652 120.655 16.9878 121.848 16.9878V20.8617H120.825C120.03 20.8617 119.32 20.986 118.695 21.2347C118.07 21.4834 117.578 21.9138 117.219 22.526C116.878 23.1382 116.707 23.9895 116.707 25.0799V31.5651H113.072Z" fill="#102D47"/>
<path d="M101.361 31.9096C99.6002 31.9096 98.2371 31.3548 97.2715 30.2452C96.3249 29.1357 95.8516 27.5096 95.8516 25.367V17.3323H99.4582V25.0226C99.4582 26.247 99.7043 27.1844 100.197 27.8348C100.689 28.4852 101.465 28.8104 102.525 28.8104C103.529 28.8104 104.352 28.447 104.996 27.72C105.659 26.9931 105.99 25.9792 105.99 24.6783V17.3323H109.625V31.5652H106.416L106.132 29.1548C105.697 29.9965 105.062 30.6661 104.229 31.1635C103.415 31.6609 102.459 31.9096 101.361 31.9096Z" fill="#102D47"/>
<path d="M90.6857 31.5653C89.209 31.5653 88.0257 31.2018 87.1359 30.4749C86.246 29.7479 85.8011 28.4566 85.8011 26.601V20.4028H83.3872V17.3324H85.8011L86.2271 13.5159H89.4362V17.3324H93.2416V20.4028H89.4362V26.6297C89.4362 27.3184 89.5782 27.7966 89.8622 28.0645C90.1651 28.3131 90.6763 28.4375 91.3957 28.4375H93.1564V31.5653H90.6857Z" fill="#102D47"/>
<path d="M73.3535 31.9094C72.1418 31.9094 71.1478 31.7181 70.3716 31.3355C69.5954 30.9338 69.0179 30.4077 68.6393 29.7573C68.2606 29.1068 68.0713 28.3894 68.0713 27.6051C68.0713 26.2851 68.5825 25.2138 69.6048 24.3912C70.6272 23.5686 72.1607 23.1573 74.2055 23.1573H77.7837V22.813C77.7837 21.8373 77.5092 21.1199 76.9602 20.6608C76.4111 20.2017 75.7295 19.9721 74.9154 19.9721C74.1771 19.9721 73.5333 20.1539 72.9843 20.5173C72.4353 20.8617 72.0945 21.3782 71.9619 22.0669H68.4121C68.5067 21.0338 68.8475 20.1347 69.4344 19.3695C70.0403 18.6043 70.8165 18.0208 71.7631 17.6191C72.7098 17.1982 73.77 16.9878 74.9438 16.9878C76.9507 16.9878 78.5316 17.4947 79.6865 18.5087C80.8413 19.5226 81.4188 20.9573 81.4188 22.813V31.5651H78.3233L77.9825 29.2694C77.566 30.0346 76.9791 30.6659 76.2218 31.1633C75.4834 31.6607 74.5273 31.9094 73.3535 31.9094ZM74.1771 29.0399C75.2184 29.0399 76.023 28.6955 76.591 28.0068C77.1779 27.3181 77.5471 26.4668 77.6985 25.4529H74.603C73.6375 25.4529 72.9464 25.6347 72.5299 25.9982C72.1134 26.3425 71.9051 26.7729 71.9051 27.2894C71.9051 27.8442 72.1134 28.2747 72.5299 28.5807C72.9464 28.8868 73.4955 29.0399 74.1771 29.0399Z" fill="#102D47"/>
<path d="M58.7087 31.9095C57.2509 31.9095 55.9635 31.6608 54.8465 31.1634C53.7295 30.6469 52.8491 29.92 52.2054 28.9826C51.5617 28.0261 51.2304 26.8687 51.2114 25.5104H55.0453C55.0831 26.4478 55.4145 27.2417 56.0392 27.8922C56.683 28.5235 57.5633 28.8391 58.6803 28.8391C59.6459 28.8391 60.4127 28.6095 60.9807 28.1504C61.5486 27.6722 61.8326 27.0409 61.8326 26.2565C61.8326 25.4339 61.577 24.7931 61.0659 24.3339C60.5736 23.8748 59.911 23.5018 59.0779 23.2148C58.2449 22.9279 57.3551 22.6218 56.4084 22.2966C54.8749 21.7609 53.7011 21.0722 52.887 20.2305C52.0918 19.3888 51.6942 18.2696 51.6942 16.8731C51.6753 15.687 51.9498 14.6731 52.5178 13.8314C53.1047 12.9705 53.8999 12.3105 54.9033 11.8514C55.9067 11.3732 57.0616 11.134 58.368 11.134C59.6932 11.134 60.8576 11.3732 61.861 11.8514C62.8834 12.3297 63.6786 12.9992 64.2465 13.8601C64.8334 14.721 65.1458 15.7444 65.1837 16.9305H61.293C61.2741 16.2227 60.9996 15.601 60.4695 15.0653C59.9583 14.5105 59.2389 14.2331 58.3112 14.2331C57.516 14.214 56.8439 14.4149 56.2948 14.8357C55.7647 15.2375 55.4997 15.8305 55.4997 16.6149C55.4997 17.2844 55.7079 17.8201 56.1244 18.2218C56.541 18.6044 57.1089 18.9296 57.8284 19.1974C58.5478 19.4653 59.3714 19.7522 60.2991 20.0583C61.2836 20.4027 62.1829 20.8044 62.997 21.2635C63.8111 21.7226 64.4643 22.3348 64.9565 23.1C65.4488 23.8461 65.6949 24.8122 65.6949 25.9983C65.6949 27.0504 65.4298 28.0261 64.8997 28.9252C64.3696 29.8243 63.5839 30.5513 62.5426 31.1061C61.5013 31.6417 60.2234 31.9095 58.7087 31.9095Z" fill="#102D47"/>
</svg>
